<svg width="760" height="280" viewBox="0 0 760 280" xmlns="http://www.w3.org/2000/svg">
<rect width="100%" height="100%" fill="white"/>
<text x="44" y="28" font-family="Arial" font-size="18" font-weight="700">Load Proxy Distribution</text>
<rect x="44.0" y="224.6" width="26.0" height="11.4" fill="#b45309"/>
<rect x="72.0" y="196.6" width="26.0" height="39.4" fill="#b45309"/>
<rect x="100.0" y="109.4" width="26.0" height="126.6" fill="#b45309"/>
<rect x="128.0" y="44.0" width="26.0" height="192.0" fill="#b45309"/>
<rect x="156.0" y="67.9" width="26.0" height="168.1" fill="#b45309"/>
<rect x="184.0" y="161.3" width="26.0" height="74.7" fill="#b45309"/>
<rect x="212.0" y="214.2" width="26.0" height="21.8" fill="#b45309"/>
<rect x="240.0" y="233.9" width="26.0" height="2.1" fill="#b45309"/>
<rect x="268.0" y="235.0" width="26.0" height="1.0" fill="#b45309"/>
<rect x="296.0" y="236.0" width="26.0" height="0.0" fill="#b45309"/>
<rect x="324.0" y="235.0" width="26.0" height="1.0" fill="#b45309"/>
<rect x="352.0" y="232.9" width="26.0" height="3.1" fill="#b45309"/>
<rect x="380.0" y="226.7" width="26.0" height="9.3" fill="#b45309"/>
<rect x="408.0" y="214.2" width="26.0" height="21.8" fill="#b45309"/>
<rect x="436.0" y="190.3" width="26.0" height="45.7" fill="#b45309"/>
<rect x="464.0" y="163.4" width="26.0" height="72.6" fill="#b45309"/>
<rect x="492.0" y="174.8" width="26.0" height="61.2" fill="#b45309"/>
<rect x="520.0" y="164.4" width="26.0" height="71.6" fill="#b45309"/>
<rect x="548.0" y="190.3" width="26.0" height="45.7" fill="#b45309"/>
<rect x="576.0" y="203.8" width="26.0" height="32.2" fill="#b45309"/>
<rect x="604.0" y="217.3" width="26.0" height="18.7" fill="#b45309"/>
<rect x="632.0" y="223.5" width="26.0" height="12.5" fill="#b45309"/>
<rect x="660.0" y="232.9" width="26.0" height="3.1" fill="#b45309"/>
<rect x="688.0" y="233.9" width="26.0" height="2.1" fill="#b45309"/>
<line x1="44" y1="236" x2="716" y2="236" stroke="#1f2937"/>
<text x="44" y="268" font-family="Arial" font-size="12">4.22</text>
<text x="624" y="268" font-family="Arial" font-size="12">10.43</text>
</svg>