<svg width="760" height="280" viewBox="0 0 760 280" xmlns="http://www.w3.org/2000/svg">
<rect width="100%" height="100%" fill="white"/>
<text x="44" y="28" font-family="Arial" font-size="18" font-weight="700">Miss Distance Distribution</text>
<rect x="44.0" y="157.1" width="26.0" height="78.9" fill="#2563eb"/>
<rect x="72.0" y="44.0" width="26.0" height="192.0" fill="#2563eb"/>
<rect x="100.0" y="203.9" width="26.0" height="32.1" fill="#2563eb"/>
<rect x="128.0" y="236.0" width="26.0" height="0.0" fill="#2563eb"/>
<rect x="156.0" y="236.0" width="26.0" height="0.0" fill="#2563eb"/>
<rect x="184.0" y="236.0" width="26.0" height="0.0" fill="#2563eb"/>
<rect x="212.0" y="236.0" width="26.0" height="0.0" fill="#2563eb"/>
<rect x="240.0" y="236.0" width="26.0" height="0.0" fill="#2563eb"/>
<rect x="268.0" y="236.0" width="26.0" height="0.0" fill="#2563eb"/>
<rect x="296.0" y="236.0" width="26.0" height="0.0" fill="#2563eb"/>
<rect x="324.0" y="236.0" width="26.0" height="0.0" fill="#2563eb"/>
<rect x="352.0" y="236.0" width="26.0" height="0.0" fill="#2563eb"/>
<rect x="380.0" y="236.0" width="26.0" height="0.0" fill="#2563eb"/>
<rect x="408.0" y="236.0" width="26.0" height="0.0" fill="#2563eb"/>
<rect x="436.0" y="226.6" width="26.0" height="9.4" fill="#2563eb"/>
<rect x="464.0" y="218.3" width="26.0" height="17.7" fill="#2563eb"/>
<rect x="492.0" y="226.6" width="26.0" height="9.4" fill="#2563eb"/>
<rect x="520.0" y="227.4" width="26.0" height="8.6" fill="#2563eb"/>
<rect x="548.0" y="230.2" width="26.0" height="5.8" fill="#2563eb"/>
<rect x="576.0" y="232.8" width="26.0" height="3.2" fill="#2563eb"/>
<rect x="604.0" y="235.3" width="26.0" height="0.7" fill="#2563eb"/>
<rect x="632.0" y="235.6" width="26.0" height="0.4" fill="#2563eb"/>
<rect x="660.0" y="234.2" width="26.0" height="1.8" fill="#2563eb"/>
<rect x="688.0" y="235.6" width="26.0" height="0.4" fill="#2563eb"/>
<line x1="44" y1="236" x2="716" y2="236" stroke="#1f2937"/>
<text x="44" y="268" font-family="Arial" font-size="12">0.76</text>
<text x="624" y="268" font-family="Arial" font-size="12">380.42</text>
</svg>