<svg width="760" height="280" viewBox="0 0 760 280" xmlns="http://www.w3.org/2000/svg">
<rect width="100%" height="100%" fill="white"/>
<text x="44" y="28" font-family="Arial" font-size="18" font-weight="700">Max Dynamic Pressure Distribution</text>
<rect x="44.0" y="232.6" width="26.0" height="3.4" fill="#7c3aed"/>
<rect x="72.0" y="229.2" width="26.0" height="6.8" fill="#7c3aed"/>
<rect x="100.0" y="225.8" width="26.0" height="10.2" fill="#7c3aed"/>
<rect x="128.0" y="220.7" width="26.0" height="15.3" fill="#7c3aed"/>
<rect x="156.0" y="212.2" width="26.0" height="23.8" fill="#7c3aed"/>
<rect x="184.0" y="188.4" width="26.0" height="47.6" fill="#7c3aed"/>
<rect x="212.0" y="186.7" width="26.0" height="49.3" fill="#7c3aed"/>
<rect x="240.0" y="166.3" width="26.0" height="69.7" fill="#7c3aed"/>
<rect x="268.0" y="157.8" width="26.0" height="78.2" fill="#7c3aed"/>
<rect x="296.0" y="103.5" width="26.0" height="132.5" fill="#7c3aed"/>
<rect x="324.0" y="88.2" width="26.0" height="147.8" fill="#7c3aed"/>
<rect x="352.0" y="49.1" width="26.0" height="186.9" fill="#7c3aed"/>
<rect x="380.0" y="66.1" width="26.0" height="169.9" fill="#7c3aed"/>
<rect x="408.0" y="44.0" width="26.0" height="192.0" fill="#7c3aed"/>
<rect x="436.0" y="89.9" width="26.0" height="146.1" fill="#7c3aed"/>
<rect x="464.0" y="120.5" width="26.0" height="115.5" fill="#7c3aed"/>
<rect x="492.0" y="140.8" width="26.0" height="95.2" fill="#7c3aed"/>
<rect x="520.0" y="151.0" width="26.0" height="85.0" fill="#7c3aed"/>
<rect x="548.0" y="181.6" width="26.0" height="54.4" fill="#7c3aed"/>
<rect x="576.0" y="205.4" width="26.0" height="30.6" fill="#7c3aed"/>
<rect x="604.0" y="210.5" width="26.0" height="25.5" fill="#7c3aed"/>
<rect x="632.0" y="229.2" width="26.0" height="6.8" fill="#7c3aed"/>
<rect x="660.0" y="232.6" width="26.0" height="3.4" fill="#7c3aed"/>
<rect x="688.0" y="232.6" width="26.0" height="3.4" fill="#7c3aed"/>
<line x1="44" y1="236" x2="716" y2="236" stroke="#1f2937"/>
<text x="44" y="268" font-family="Arial" font-size="12">112764.77</text>
<text x="624" y="268" font-family="Arial" font-size="12">175845.86</text>
</svg>