<svg width="760" height="280" viewBox="0 0 760 280" xmlns="http://www.w3.org/2000/svg">
<rect width="100%" height="100%" fill="white"/>
<text x="44" y="28" font-family="Arial" font-size="18" font-weight="700">Robustness Margin Distribution</text>
<rect x="44.0" y="235.4" width="26.0" height="0.6" fill="#0f766e"/>
<rect x="72.0" y="236.0" width="26.0" height="0.0" fill="#0f766e"/>
<rect x="100.0" y="233.2" width="26.0" height="2.8" fill="#0f766e"/>
<rect x="128.0" y="235.4" width="26.0" height="0.6" fill="#0f766e"/>
<rect x="156.0" y="236.0" width="26.0" height="0.0" fill="#0f766e"/>
<rect x="184.0" y="235.4" width="26.0" height="0.6" fill="#0f766e"/>
<rect x="212.0" y="234.9" width="26.0" height="1.1" fill="#0f766e"/>
<rect x="240.0" y="232.6" width="26.0" height="3.4" fill="#0f766e"/>
<rect x="268.0" y="233.2" width="26.0" height="2.8" fill="#0f766e"/>
<rect x="296.0" y="228.7" width="26.0" height="7.3" fill="#0f766e"/>
<rect x="324.0" y="227.6" width="26.0" height="8.4" fill="#0f766e"/>
<rect x="352.0" y="227.0" width="26.0" height="9.0" fill="#0f766e"/>
<rect x="380.0" y="228.1" width="26.0" height="7.9" fill="#0f766e"/>
<rect x="408.0" y="217.5" width="26.0" height="18.5" fill="#0f766e"/>
<rect x="436.0" y="220.8" width="26.0" height="15.2" fill="#0f766e"/>
<rect x="464.0" y="224.8" width="26.0" height="11.2" fill="#0f766e"/>
<rect x="492.0" y="236.0" width="26.0" height="0.0" fill="#0f766e"/>
<rect x="520.0" y="236.0" width="26.0" height="0.0" fill="#0f766e"/>
<rect x="548.0" y="232.1" width="26.0" height="3.9" fill="#0f766e"/>
<rect x="576.0" y="186.0" width="26.0" height="50.0" fill="#0f766e"/>
<rect x="604.0" y="100.1" width="26.0" height="135.9" fill="#0f766e"/>
<rect x="632.0" y="44.0" width="26.0" height="192.0" fill="#0f766e"/>
<rect x="660.0" y="158.5" width="26.0" height="77.5" fill="#0f766e"/>
<rect x="688.0" y="223.1" width="26.0" height="12.9" fill="#0f766e"/>
<line x1="44" y1="236" x2="716" y2="236" stroke="#1f2937"/>
<text x="44" y="268" font-family="Arial" font-size="12">-150.42</text>
<text x="624" y="268" font-family="Arial" font-size="12">79.52</text>
</svg>