<svg width="760" height="320" viewBox="0 0 760 320" xmlns="http://www.w3.org/2000/svg">
<rect width="100%" height="100%" fill="white"/>
<text x="56" y="28" font-family="Arial" font-size="18" font-weight="700">Sensitivity Tornado</text>
<line x1="395.2" y1="48" x2="395.2" y2="274" stroke="#6b7280"/>
<text x="56" y="68" font-family="Arial" font-size="12">guidance_gain</text>
<rect x="395.2" y="56" width="243.2" height="14" fill="#b91c1c" fill-opacity="0.82"/>
<text x="56" y="90" font-family="Arial" font-size="12">sensor_bias_z_m</text>
<rect x="182.7" y="78" width="212.5" height="14" fill="#1d4ed8" fill-opacity="0.82"/>
<text x="56" y="112" font-family="Arial" font-size="12">sensor_bias_x_m</text>
<rect x="283.4" y="100" width="111.8" height="14" fill="#1d4ed8" fill-opacity="0.82"/>
<text x="56" y="134" font-family="Arial" font-size="12">thrust_n</text>
<rect x="282.8" y="122" width="112.4" height="14" fill="#1d4ed8" fill-opacity="0.82"/>
<text x="56" y="156" font-family="Arial" font-size="12">drag_cd</text>
<rect x="395.2" y="144" width="60.3" height="14" fill="#b91c1c" fill-opacity="0.82"/>
<text x="56" y="178" font-family="Arial" font-size="12">wind_x_mps</text>
<rect x="344.7" y="166" width="50.5" height="14" fill="#1d4ed8" fill-opacity="0.82"/>
<text x="56" y="200" font-family="Arial" font-size="12">wind_z_mps</text>
<rect x="342.1" y="188" width="53.1" height="14" fill="#1d4ed8" fill-opacity="0.82"/>
<text x="56" y="222" font-family="Arial" font-size="12">mass_kg</text>
<rect x="395.2" y="210" width="35.6" height="14" fill="#b91c1c" fill-opacity="0.82"/>
<text x="56" y="244" font-family="Arial" font-size="12">sensor_noise_m</text>
<rect x="393.7" y="232" width="1.5" height="14" fill="#1d4ed8" fill-opacity="0.82"/>
</svg>