<svg width="760" height="320" viewBox="0 0 760 320" xmlns="http://www.w3.org/2000/svg">
<rect width="100%" height="100%" fill="white"/>
<text x="52" y="28" font-family="Arial" font-size="18" font-weight="700">Stress Miss vs Margin</text>
<line x1="52" y1="268" x2="708" y2="268" stroke="#1f2937"/>
<line x1="52" y1="52" x2="52" y2="268" stroke="#1f2937"/>
<circle cx="674.3" cy="261.6" r="2.6" fill="#0f766e" fill-opacity="0.72"/>
<circle cx="674.8" cy="261.8" r="2.6" fill="#0f766e" fill-opacity="0.72"/>
<circle cx="448.6" cy="133.8" r="2.6" fill="#0f766e" fill-opacity="0.72"/>
<circle cx="448.6" cy="133.8" r="2.6" fill="#0f766e" fill-opacity="0.72"/>
<circle cx="482.7" cy="140.8" r="2.6" fill="#0f766e" fill-opacity="0.72"/>
<circle cx="481.8" cy="140.7" r="2.6" fill="#0f766e" fill-opacity="0.72"/>
<circle cx="110.2" cy="64.0" r="2.6" fill="#0f766e" fill-opacity="0.72"/>
<circle cx="59.0" cy="53.4" r="2.6" fill="#0f766e" fill-opacity="0.72"/>
<circle cx="554.3" cy="266.5" r="2.6" fill="#0f766e" fill-opacity="0.72"/>
<circle cx="554.5" cy="267.0" r="2.6" fill="#0f766e" fill-opacity="0.72"/>
<circle cx="552.5" cy="257.5" r="2.6" fill="#0f766e" fill-opacity="0.72"/>
<circle cx="553.0" cy="256.8" r="2.6" fill="#0f766e" fill-opacity="0.72"/>
<circle cx="646.1" cy="260.2" r="2.6" fill="#0f766e" fill-opacity="0.72"/>
<circle cx="646.4" cy="260.1" r="2.6" fill="#0f766e" fill-opacity="0.72"/>
<circle cx="406.2" cy="125.1" r="2.6" fill="#0f766e" fill-opacity="0.72"/>
<circle cx="406.1" cy="125.0" r="2.6" fill="#0f766e" fill-opacity="0.72"/>
<circle cx="708.0" cy="257.9" r="2.6" fill="#0f766e" fill-opacity="0.72"/>
<circle cx="708.0" cy="258.0" r="2.6" fill="#0f766e" fill-opacity="0.72"/>
<circle cx="341.3" cy="111.7" r="2.6" fill="#0f766e" fill-opacity="0.72"/>
<circle cx="341.0" cy="111.6" r="2.6" fill="#0f766e" fill-opacity="0.72"/>
<circle cx="459.2" cy="136.0" r="2.6" fill="#0f766e" fill-opacity="0.72"/>
<circle cx="458.7" cy="135.9" r="2.6" fill="#0f766e" fill-opacity="0.72"/>
<circle cx="52.1" cy="52.0" r="2.6" fill="#0f766e" fill-opacity="0.72"/>
<circle cx="52.0" cy="52.0" r="2.6" fill="#0f766e" fill-opacity="0.72"/>
<circle cx="598.4" cy="268.0" r="2.6" fill="#0f766e" fill-opacity="0.72"/>
<circle cx="598.6" cy="267.7" r="2.6" fill="#0f766e" fill-opacity="0.72"/>
<circle cx="598.5" cy="255.3" r="2.6" fill="#0f766e" fill-opacity="0.72"/>
<circle cx="601.4" cy="254.5" r="2.6" fill="#0f766e" fill-opacity="0.72"/>
<circle cx="672.9" cy="257.1" r="2.6" fill="#0f766e" fill-opacity="0.72"/>
<circle cx="671.2" cy="256.9" r="2.6" fill="#0f766e" fill-opacity="0.72"/>
<circle cx="350.2" cy="113.5" r="2.6" fill="#0f766e" fill-opacity="0.72"/>
<circle cx="291.6" cy="101.4" r="2.6" fill="#0f766e" fill-opacity="0.72"/>
<text x="320.0" y="310" font-family="Arial" font-size="12">robustness_margin</text>
<text x="8" y="38" font-family="Arial" font-size="12">miss_distance_m</text>
</svg>