<svg width="760" height="320" viewBox="0 0 760 320" xmlns="http://www.w3.org/2000/svg">
<rect width="100%" height="100%" fill="white"/>
<text x="52" y="28" font-family="Arial" font-size="18" font-weight="700">Miss Distance vs Dynamic Pressure</text>
<line x1="52" y1="268" x2="708" y2="268" stroke="#1f2937"/>
<line x1="52" y1="52" x2="52" y2="268" stroke="#1f2937"/>
<circle cx="144.4" cy="165.6" r="2.6" fill="#0f766e" fill-opacity="0.72"/>
<circle cx="477.1" cy="256.8" r="2.6" fill="#0f766e" fill-opacity="0.72"/>
<circle cx="66.5" cy="214.8" r="2.6" fill="#0f766e" fill-opacity="0.72"/>
<circle cx="326.6" cy="52.0" r="2.6" fill="#0f766e" fill-opacity="0.72"/>
<circle cx="52.0" cy="61.3" r="2.6" fill="#0f766e" fill-opacity="0.72"/>
<circle cx="151.1" cy="118.6" r="2.6" fill="#0f766e" fill-opacity="0.72"/>
<circle cx="477.1" cy="256.8" r="2.6" fill="#0f766e" fill-opacity="0.72"/>
<circle cx="66.5" cy="214.8" r="2.6" fill="#0f766e" fill-opacity="0.72"/>
<circle cx="326.6" cy="52.0" r="2.6" fill="#0f766e" fill-opacity="0.72"/>
<circle cx="52.0" cy="61.3" r="2.6" fill="#0f766e" fill-opacity="0.72"/>
<circle cx="151.1" cy="118.6" r="2.6" fill="#0f766e" fill-opacity="0.72"/>
<circle cx="116.5" cy="219.8" r="2.6" fill="#0f766e" fill-opacity="0.72"/>
<circle cx="66.5" cy="214.8" r="2.6" fill="#0f766e" fill-opacity="0.72"/>
<circle cx="326.6" cy="52.0" r="2.6" fill="#0f766e" fill-opacity="0.72"/>
<circle cx="52.0" cy="61.3" r="2.6" fill="#0f766e" fill-opacity="0.72"/>
<circle cx="151.1" cy="118.6" r="2.6" fill="#0f766e" fill-opacity="0.72"/>
<circle cx="116.5" cy="219.8" r="2.6" fill="#0f766e" fill-opacity="0.72"/>
<circle cx="544.4" cy="84.3" r="2.6" fill="#0f766e" fill-opacity="0.72"/>
<circle cx="326.6" cy="52.0" r="2.6" fill="#0f766e" fill-opacity="0.72"/>
<circle cx="52.0" cy="61.3" r="2.6" fill="#0f766e" fill-opacity="0.72"/>
<circle cx="151.1" cy="118.6" r="2.6" fill="#0f766e" fill-opacity="0.72"/>
<circle cx="116.5" cy="219.8" r="2.6" fill="#0f766e" fill-opacity="0.72"/>
<circle cx="544.4" cy="84.3" r="2.6" fill="#0f766e" fill-opacity="0.72"/>
<circle cx="423.9" cy="104.7" r="2.6" fill="#0f766e" fill-opacity="0.72"/>
<circle cx="52.0" cy="61.3" r="2.6" fill="#0f766e" fill-opacity="0.72"/>
<circle cx="151.1" cy="118.6" r="2.6" fill="#0f766e" fill-opacity="0.72"/>
<circle cx="116.5" cy="219.8" r="2.6" fill="#0f766e" fill-opacity="0.72"/>
<circle cx="544.4" cy="84.3" r="2.6" fill="#0f766e" fill-opacity="0.72"/>
<circle cx="423.9" cy="104.7" r="2.6" fill="#0f766e" fill-opacity="0.72"/>
<circle cx="334.4" cy="268.0" r="2.6" fill="#0f766e" fill-opacity="0.72"/>
<circle cx="151.1" cy="118.6" r="2.6" fill="#0f766e" fill-opacity="0.72"/>
<circle cx="116.5" cy="219.8" r="2.6" fill="#0f766e" fill-opacity="0.72"/>
<circle cx="544.4" cy="84.3" r="2.6" fill="#0f766e" fill-opacity="0.72"/>
<circle cx="423.9" cy="104.7" r="2.6" fill="#0f766e" fill-opacity="0.72"/>
<circle cx="334.4" cy="268.0" r="2.6" fill="#0f766e" fill-opacity="0.72"/>
<circle cx="708.0" cy="182.8" r="2.6" fill="#0f766e" fill-opacity="0.72"/>
<circle cx="116.5" cy="219.8" r="2.6" fill="#0f766e" fill-opacity="0.72"/>
<circle cx="544.4" cy="84.3" r="2.6" fill="#0f766e" fill-opacity="0.72"/>
<circle cx="423.9" cy="104.7" r="2.6" fill="#0f766e" fill-opacity="0.72"/>
<circle cx="334.4" cy="268.0" r="2.6" fill="#0f766e" fill-opacity="0.72"/>
<circle cx="708.0" cy="182.8" r="2.6" fill="#0f766e" fill-opacity="0.72"/>
<circle cx="245.8" cy="215.2" r="2.6" fill="#0f766e" fill-opacity="0.72"/>
<circle cx="544.4" cy="84.3" r="2.6" fill="#0f766e" fill-opacity="0.72"/>
<circle cx="423.9" cy="104.7" r="2.6" fill="#0f766e" fill-opacity="0.72"/>
<circle cx="334.4" cy="268.0" r="2.6" fill="#0f766e" fill-opacity="0.72"/>
<circle cx="708.0" cy="182.8" r="2.6" fill="#0f766e" fill-opacity="0.72"/>
<circle cx="245.8" cy="215.2" r="2.6" fill="#0f766e" fill-opacity="0.72"/>
<circle cx="105.8" cy="237.8" r="2.6" fill="#0f766e" fill-opacity="0.72"/>
<circle cx="423.9" cy="104.7" r="2.6" fill="#0f766e" fill-opacity="0.72"/>
<circle cx="334.4" cy="268.0" r="2.6" fill="#0f766e" fill-opacity="0.72"/>
<circle cx="708.0" cy="182.8" r="2.6" fill="#0f766e" fill-opacity="0.72"/>
<circle cx="245.8" cy="215.2" r="2.6" fill="#0f766e" fill-opacity="0.72"/>
<circle cx="105.8" cy="237.8" r="2.6" fill="#0f766e" fill-opacity="0.72"/>
<circle cx="504.3" cy="207.3" r="2.6" fill="#0f766e" fill-opacity="0.72"/>
<circle cx="334.4" cy="268.0" r="2.6" fill="#0f766e" fill-opacity="0.72"/>
<circle cx="708.0" cy="182.8" r="2.6" fill="#0f766e" fill-opacity="0.72"/>
<circle cx="245.8" cy="215.2" r="2.6" fill="#0f766e" fill-opacity="0.72"/>
<circle cx="105.8" cy="237.8" r="2.6" fill="#0f766e" fill-opacity="0.72"/>
<circle cx="504.3" cy="207.3" r="2.6" fill="#0f766e" fill-opacity="0.72"/>
<circle cx="102.5" cy="264.0" r="2.6" fill="#0f766e" fill-opacity="0.72"/>
<circle cx="708.0" cy="182.8" r="2.6" fill="#0f766e" fill-opacity="0.72"/>
<circle cx="245.8" cy="215.2" r="2.6" fill="#0f766e" fill-opacity="0.72"/>
<circle cx="105.8" cy="237.8" r="2.6" fill="#0f766e" fill-opacity="0.72"/>
<circle cx="504.3" cy="207.3" r="2.6" fill="#0f766e" fill-opacity="0.72"/>
<circle cx="102.5" cy="264.0" r="2.6" fill="#0f766e" fill-opacity="0.72"/>
<circle cx="536.8" cy="198.2" r="2.6" fill="#0f766e" fill-opacity="0.72"/>
<circle cx="245.8" cy="215.2" r="2.6" fill="#0f766e" fill-opacity="0.72"/>
<circle cx="105.8" cy="237.8" r="2.6" fill="#0f766e" fill-opacity="0.72"/>
<circle cx="504.3" cy="207.3" r="2.6" fill="#0f766e" fill-opacity="0.72"/>
<circle cx="102.5" cy="264.0" r="2.6" fill="#0f766e" fill-opacity="0.72"/>
<circle cx="536.8" cy="198.2" r="2.6" fill="#0f766e" fill-opacity="0.72"/>
<circle cx="408.3" cy="129.4" r="2.6" fill="#0f766e" fill-opacity="0.72"/>
<circle cx="105.8" cy="237.8" r="2.6" fill="#0f766e" fill-opacity="0.72"/>
<circle cx="504.3" cy="207.3" r="2.6" fill="#0f766e" fill-opacity="0.72"/>
<circle cx="102.5" cy="264.0" r="2.6" fill="#0f766e" fill-opacity="0.72"/>
<circle cx="536.8" cy="198.2" r="2.6" fill="#0f766e" fill-opacity="0.72"/>
<circle cx="408.3" cy="129.4" r="2.6" fill="#0f766e" fill-opacity="0.72"/>
<circle cx="53.0" cy="145.3" r="2.6" fill="#0f766e" fill-opacity="0.72"/>
<circle cx="504.3" cy="207.3" r="2.6" fill="#0f766e" fill-opacity="0.72"/>
<circle cx="102.5" cy="264.0" r="2.6" fill="#0f766e" fill-opacity="0.72"/>
<circle cx="536.8" cy="198.2" r="2.6" fill="#0f766e" fill-opacity="0.72"/>
<circle cx="408.3" cy="129.4" r="2.6" fill="#0f766e" fill-opacity="0.72"/>
<circle cx="53.0" cy="145.3" r="2.6" fill="#0f766e" fill-opacity="0.72"/>
<circle cx="449.3" cy="231.1" r="2.6" fill="#0f766e" fill-opacity="0.72"/>
<circle cx="102.5" cy="264.0" r="2.6" fill="#0f766e" fill-opacity="0.72"/>
<circle cx="536.8" cy="198.2" r="2.6" fill="#0f766e" fill-opacity="0.72"/>
<circle cx="408.3" cy="129.4" r="2.6" fill="#0f766e" fill-opacity="0.72"/>
<circle cx="53.0" cy="145.3" r="2.6" fill="#0f766e" fill-opacity="0.72"/>
<circle cx="449.3" cy="231.1" r="2.6" fill="#0f766e" fill-opacity="0.72"/>
<circle cx="347.8" cy="165.5" r="2.6" fill="#0f766e" fill-opacity="0.72"/>
<text x="320.0" y="310" font-family="Arial" font-size="12">max_qbar_pa</text>
<text x="8" y="38" font-family="Arial" font-size="12">miss_distance_m</text>
</svg>