<svg width="760" height="320" viewBox="0 0 760 320" xmlns="http://www.w3.org/2000/svg">
<rect width="100%" height="100%" fill="white"/>
<text x="52" y="28" font-family="Arial" font-size="18" font-weight="700">Miss Distance vs Dynamic Pressure</text>
<line x1="52" y1="268" x2="708" y2="268" stroke="#1f2937"/>
<line x1="52" y1="52" x2="52" y2="268" stroke="#1f2937"/>
<circle cx="528.5" cy="251.6" r="2.6" fill="#0f766e" fill-opacity="0.72"/>
<circle cx="653.3" cy="241.3" r="2.6" fill="#0f766e" fill-opacity="0.72"/>
<circle cx="502.9" cy="251.9" r="2.6" fill="#0f766e" fill-opacity="0.72"/>
<circle cx="531.9" cy="249.4" r="2.6" fill="#0f766e" fill-opacity="0.72"/>
<circle cx="705.2" cy="254.3" r="2.6" fill="#0f766e" fill-opacity="0.72"/>
<circle cx="601.5" cy="250.2" r="2.6" fill="#0f766e" fill-opacity="0.72"/>
<circle cx="556.9" cy="248.6" r="2.6" fill="#0f766e" fill-opacity="0.72"/>
<circle cx="612.1" cy="251.5" r="2.6" fill="#0f766e" fill-opacity="0.72"/>
<circle cx="554.9" cy="248.0" r="2.6" fill="#0f766e" fill-opacity="0.72"/>
<circle cx="347.2" cy="245.7" r="2.6" fill="#0f766e" fill-opacity="0.72"/>
<circle cx="568.9" cy="255.0" r="2.6" fill="#0f766e" fill-opacity="0.72"/>
<circle cx="173.4" cy="71.7" r="2.6" fill="#0f766e" fill-opacity="0.72"/>
<circle cx="52.0" cy="74.1" r="2.6" fill="#0f766e" fill-opacity="0.72"/>
<circle cx="467.8" cy="257.3" r="2.6" fill="#0f766e" fill-opacity="0.72"/>
<circle cx="554.7" cy="244.0" r="2.6" fill="#0f766e" fill-opacity="0.72"/>
<circle cx="599.8" cy="254.0" r="2.6" fill="#0f766e" fill-opacity="0.72"/>
<circle cx="642.3" cy="262.3" r="2.6" fill="#0f766e" fill-opacity="0.72"/>
<circle cx="231.7" cy="94.6" r="2.6" fill="#0f766e" fill-opacity="0.72"/>
<circle cx="505.1" cy="261.0" r="2.6" fill="#0f766e" fill-opacity="0.72"/>
<circle cx="444.2" cy="248.1" r="2.6" fill="#0f766e" fill-opacity="0.72"/>
<circle cx="708.0" cy="253.5" r="2.6" fill="#0f766e" fill-opacity="0.72"/>
<circle cx="560.3" cy="248.9" r="2.6" fill="#0f766e" fill-opacity="0.72"/>
<circle cx="516.8" cy="250.6" r="2.6" fill="#0f766e" fill-opacity="0.72"/>
<circle cx="622.6" cy="254.1" r="2.6" fill="#0f766e" fill-opacity="0.72"/>
<circle cx="594.6" cy="268.0" r="2.6" fill="#0f766e" fill-opacity="0.72"/>
<circle cx="634.0" cy="253.1" r="2.6" fill="#0f766e" fill-opacity="0.72"/>
<circle cx="247.6" cy="82.3" r="2.6" fill="#0f766e" fill-opacity="0.72"/>
<circle cx="106.9" cy="52.0" r="2.6" fill="#0f766e" fill-opacity="0.72"/>
<circle cx="492.0" cy="247.4" r="2.6" fill="#0f766e" fill-opacity="0.72"/>
<circle cx="529.4" cy="252.4" r="2.6" fill="#0f766e" fill-opacity="0.72"/>
<circle cx="393.0" cy="256.3" r="2.6" fill="#0f766e" fill-opacity="0.72"/>
<circle cx="581.9" cy="254.6" r="2.6" fill="#0f766e" fill-opacity="0.72"/>
<text x="320.0" y="310" font-family="Arial" font-size="12">max_qbar_pa</text>
<text x="8" y="38" font-family="Arial" font-size="12">miss_distance_m</text>
</svg>