<svg width="760" height="320" viewBox="0 0 760 320" xmlns="http://www.w3.org/2000/svg">
<rect width="100%" height="100%" fill="white"/>
<text x="52" y="28" font-family="Arial" font-size="18" font-weight="700">Miss Distance vs Impulse</text>
<line x1="52" y1="268" x2="708" y2="268" stroke="#1f2937"/>
<line x1="52" y1="52" x2="52" y2="268" stroke="#1f2937"/>
<circle cx="158.5" cy="260.9" r="2.6" fill="#0f766e" fill-opacity="0.72"/>
<circle cx="178.3" cy="258.7" r="2.6" fill="#0f766e" fill-opacity="0.72"/>
<circle cx="218.5" cy="258.7" r="2.6" fill="#0f766e" fill-opacity="0.72"/>
<circle cx="708.0" cy="252.5" r="2.6" fill="#0f766e" fill-opacity="0.72"/>
<circle cx="636.1" cy="250.3" r="2.6" fill="#0f766e" fill-opacity="0.72"/>
<circle cx="225.2" cy="261.0" r="2.6" fill="#0f766e" fill-opacity="0.72"/>
<circle cx="146.9" cy="94.7" r="2.6" fill="#0f766e" fill-opacity="0.72"/>
<circle cx="161.8" cy="262.4" r="2.6" fill="#0f766e" fill-opacity="0.72"/>
<circle cx="486.2" cy="250.8" r="2.6" fill="#0f766e" fill-opacity="0.72"/>
<circle cx="524.4" cy="252.5" r="2.6" fill="#0f766e" fill-opacity="0.72"/>
<circle cx="603.2" cy="255.2" r="2.6" fill="#0f766e" fill-opacity="0.72"/>
<circle cx="76.8" cy="67.9" r="2.6" fill="#0f766e" fill-opacity="0.72"/>
<circle cx="197.8" cy="258.8" r="2.6" fill="#0f766e" fill-opacity="0.72"/>
<circle cx="242.5" cy="268.0" r="2.6" fill="#0f766e" fill-opacity="0.72"/>
<circle cx="576.4" cy="247.0" r="2.6" fill="#0f766e" fill-opacity="0.72"/>
<circle cx="502.1" cy="251.7" r="2.6" fill="#0f766e" fill-opacity="0.72"/>
<circle cx="253.0" cy="261.7" r="2.6" fill="#0f766e" fill-opacity="0.72"/>
<circle cx="168.0" cy="94.1" r="2.6" fill="#0f766e" fill-opacity="0.72"/>
<circle cx="188.7" cy="258.5" r="2.6" fill="#0f766e" fill-opacity="0.72"/>
<circle cx="633.0" cy="252.9" r="2.6" fill="#0f766e" fill-opacity="0.72"/>
<circle cx="278.8" cy="261.0" r="2.6" fill="#0f766e" fill-opacity="0.72"/>
<circle cx="386.2" cy="248.7" r="2.6" fill="#0f766e" fill-opacity="0.72"/>
<circle cx="169.7" cy="257.0" r="2.6" fill="#0f766e" fill-opacity="0.72"/>
<circle cx="463.1" cy="247.0" r="2.6" fill="#0f766e" fill-opacity="0.72"/>
<circle cx="204.3" cy="263.4" r="2.6" fill="#0f766e" fill-opacity="0.72"/>
<circle cx="52.0" cy="52.0" r="2.6" fill="#0f766e" fill-opacity="0.72"/>
<circle cx="206.0" cy="59.6" r="2.6" fill="#0f766e" fill-opacity="0.72"/>
<circle cx="565.3" cy="250.1" r="2.6" fill="#0f766e" fill-opacity="0.72"/>
<circle cx="129.3" cy="90.8" r="2.6" fill="#0f766e" fill-opacity="0.72"/>
<circle cx="169.7" cy="257.6" r="2.6" fill="#0f766e" fill-opacity="0.72"/>
<circle cx="214.9" cy="256.7" r="2.6" fill="#0f766e" fill-opacity="0.72"/>
<circle cx="136.3" cy="263.2" r="2.6" fill="#0f766e" fill-opacity="0.72"/>
<text x="320.0" y="310" font-family="Arial" font-size="12">impulse_n_s</text>
<text x="8" y="38" font-family="Arial" font-size="12">miss_distance_m</text>
</svg>