<svg width="760" height="320" viewBox="0 0 760 320" xmlns="http://www.w3.org/2000/svg">
<rect width="100%" height="100%" fill="white"/>
<text x="52" y="28" font-family="Arial" font-size="18" font-weight="700">Miss Distance vs Dynamic Pressure</text>
<line x1="52" y1="268" x2="708" y2="268" stroke="#1f2937"/>
<line x1="52" y1="52" x2="52" y2="268" stroke="#1f2937"/>
<circle cx="421.6" cy="260.9" r="2.6" fill="#0f766e" fill-opacity="0.72"/>
<circle cx="601.7" cy="258.7" r="2.6" fill="#0f766e" fill-opacity="0.72"/>
<circle cx="589.5" cy="258.7" r="2.6" fill="#0f766e" fill-opacity="0.72"/>
<circle cx="682.5" cy="252.5" r="2.6" fill="#0f766e" fill-opacity="0.72"/>
<circle cx="574.6" cy="250.3" r="2.6" fill="#0f766e" fill-opacity="0.72"/>
<circle cx="478.8" cy="261.0" r="2.6" fill="#0f766e" fill-opacity="0.72"/>
<circle cx="383.6" cy="94.7" r="2.6" fill="#0f766e" fill-opacity="0.72"/>
<circle cx="417.9" cy="262.4" r="2.6" fill="#0f766e" fill-opacity="0.72"/>
<circle cx="331.7" cy="250.8" r="2.6" fill="#0f766e" fill-opacity="0.72"/>
<circle cx="381.1" cy="252.5" r="2.6" fill="#0f766e" fill-opacity="0.72"/>
<circle cx="708.0" cy="255.2" r="2.6" fill="#0f766e" fill-opacity="0.72"/>
<circle cx="108.8" cy="67.9" r="2.6" fill="#0f766e" fill-opacity="0.72"/>
<circle cx="372.3" cy="258.8" r="2.6" fill="#0f766e" fill-opacity="0.72"/>
<circle cx="507.7" cy="268.0" r="2.6" fill="#0f766e" fill-opacity="0.72"/>
<circle cx="148.6" cy="247.0" r="2.6" fill="#0f766e" fill-opacity="0.72"/>
<circle cx="572.6" cy="251.7" r="2.6" fill="#0f766e" fill-opacity="0.72"/>
<circle cx="694.6" cy="261.7" r="2.6" fill="#0f766e" fill-opacity="0.72"/>
<circle cx="217.1" cy="94.1" r="2.6" fill="#0f766e" fill-opacity="0.72"/>
<circle cx="438.8" cy="258.5" r="2.6" fill="#0f766e" fill-opacity="0.72"/>
<circle cx="439.2" cy="252.9" r="2.6" fill="#0f766e" fill-opacity="0.72"/>
<circle cx="565.6" cy="261.0" r="2.6" fill="#0f766e" fill-opacity="0.72"/>
<circle cx="52.0" cy="248.7" r="2.6" fill="#0f766e" fill-opacity="0.72"/>
<circle cx="433.5" cy="257.0" r="2.6" fill="#0f766e" fill-opacity="0.72"/>
<circle cx="252.7" cy="247.0" r="2.6" fill="#0f766e" fill-opacity="0.72"/>
<circle cx="573.4" cy="263.4" r="2.6" fill="#0f766e" fill-opacity="0.72"/>
<circle cx="82.3" cy="52.0" r="2.6" fill="#0f766e" fill-opacity="0.72"/>
<circle cx="256.8" cy="59.6" r="2.6" fill="#0f766e" fill-opacity="0.72"/>
<circle cx="566.5" cy="250.1" r="2.6" fill="#0f766e" fill-opacity="0.72"/>
<circle cx="363.1" cy="90.8" r="2.6" fill="#0f766e" fill-opacity="0.72"/>
<circle cx="339.5" cy="257.6" r="2.6" fill="#0f766e" fill-opacity="0.72"/>
<circle cx="384.4" cy="256.7" r="2.6" fill="#0f766e" fill-opacity="0.72"/>
<circle cx="400.5" cy="263.2" r="2.6" fill="#0f766e" fill-opacity="0.72"/>
<text x="320.0" y="310" font-family="Arial" font-size="12">max_qbar_pa</text>
<text x="8" y="38" font-family="Arial" font-size="12">miss_distance_m</text>
</svg>