<svg width="760" height="320" viewBox="0 0 760 320" xmlns="http://www.w3.org/2000/svg">
<rect width="100%" height="100%" fill="white"/>
<text x="52" y="28" font-family="Arial" font-size="18" font-weight="700">Design Trade: Impulse vs Miss</text>
<line x1="52" y1="268" x2="708" y2="268" stroke="#1f2937"/>
<line x1="52" y1="52" x2="52" y2="268" stroke="#1f2937"/>
<circle cx="151.5" cy="165.6" r="2.6" fill="#0f766e" fill-opacity="0.72"/>
<circle cx="168.9" cy="256.8" r="2.6" fill="#0f766e" fill-opacity="0.72"/>
<circle cx="52.0" cy="214.8" r="2.6" fill="#0f766e" fill-opacity="0.72"/>
<circle cx="563.9" cy="52.0" r="2.6" fill="#0f766e" fill-opacity="0.72"/>
<circle cx="465.9" cy="61.3" r="2.6" fill="#0f766e" fill-opacity="0.72"/>
<circle cx="488.6" cy="118.6" r="2.6" fill="#0f766e" fill-opacity="0.72"/>
<circle cx="168.9" cy="256.8" r="2.6" fill="#0f766e" fill-opacity="0.72"/>
<circle cx="52.0" cy="214.8" r="2.6" fill="#0f766e" fill-opacity="0.72"/>
<circle cx="563.9" cy="52.0" r="2.6" fill="#0f766e" fill-opacity="0.72"/>
<circle cx="465.9" cy="61.3" r="2.6" fill="#0f766e" fill-opacity="0.72"/>
<circle cx="488.6" cy="118.6" r="2.6" fill="#0f766e" fill-opacity="0.72"/>
<circle cx="157.9" cy="219.8" r="2.6" fill="#0f766e" fill-opacity="0.72"/>
<circle cx="52.0" cy="214.8" r="2.6" fill="#0f766e" fill-opacity="0.72"/>
<circle cx="563.9" cy="52.0" r="2.6" fill="#0f766e" fill-opacity="0.72"/>
<circle cx="465.9" cy="61.3" r="2.6" fill="#0f766e" fill-opacity="0.72"/>
<circle cx="488.6" cy="118.6" r="2.6" fill="#0f766e" fill-opacity="0.72"/>
<circle cx="157.9" cy="219.8" r="2.6" fill="#0f766e" fill-opacity="0.72"/>
<circle cx="708.0" cy="84.3" r="2.6" fill="#0f766e" fill-opacity="0.72"/>
<circle cx="563.9" cy="52.0" r="2.6" fill="#0f766e" fill-opacity="0.72"/>
<circle cx="465.9" cy="61.3" r="2.6" fill="#0f766e" fill-opacity="0.72"/>
<circle cx="488.6" cy="118.6" r="2.6" fill="#0f766e" fill-opacity="0.72"/>
<circle cx="157.9" cy="219.8" r="2.6" fill="#0f766e" fill-opacity="0.72"/>
<circle cx="708.0" cy="84.3" r="2.6" fill="#0f766e" fill-opacity="0.72"/>
<circle cx="591.3" cy="104.7" r="2.6" fill="#0f766e" fill-opacity="0.72"/>
<circle cx="465.9" cy="61.3" r="2.6" fill="#0f766e" fill-opacity="0.72"/>
<circle cx="488.6" cy="118.6" r="2.6" fill="#0f766e" fill-opacity="0.72"/>
<circle cx="157.9" cy="219.8" r="2.6" fill="#0f766e" fill-opacity="0.72"/>
<circle cx="708.0" cy="84.3" r="2.6" fill="#0f766e" fill-opacity="0.72"/>
<circle cx="591.3" cy="104.7" r="2.6" fill="#0f766e" fill-opacity="0.72"/>
<circle cx="196.5" cy="268.0" r="2.6" fill="#0f766e" fill-opacity="0.72"/>
<circle cx="488.6" cy="118.6" r="2.6" fill="#0f766e" fill-opacity="0.72"/>
<circle cx="157.9" cy="219.8" r="2.6" fill="#0f766e" fill-opacity="0.72"/>
<circle cx="708.0" cy="84.3" r="2.6" fill="#0f766e" fill-opacity="0.72"/>
<circle cx="591.3" cy="104.7" r="2.6" fill="#0f766e" fill-opacity="0.72"/>
<circle cx="196.5" cy="268.0" r="2.6" fill="#0f766e" fill-opacity="0.72"/>
<circle cx="194.2" cy="182.8" r="2.6" fill="#0f766e" fill-opacity="0.72"/>
<circle cx="157.9" cy="219.8" r="2.6" fill="#0f766e" fill-opacity="0.72"/>
<circle cx="708.0" cy="84.3" r="2.6" fill="#0f766e" fill-opacity="0.72"/>
<circle cx="591.3" cy="104.7" r="2.6" fill="#0f766e" fill-opacity="0.72"/>
<circle cx="196.5" cy="268.0" r="2.6" fill="#0f766e" fill-opacity="0.72"/>
<circle cx="194.2" cy="182.8" r="2.6" fill="#0f766e" fill-opacity="0.72"/>
<circle cx="149.7" cy="215.2" r="2.6" fill="#0f766e" fill-opacity="0.72"/>
<circle cx="708.0" cy="84.3" r="2.6" fill="#0f766e" fill-opacity="0.72"/>
<circle cx="591.3" cy="104.7" r="2.6" fill="#0f766e" fill-opacity="0.72"/>
<circle cx="196.5" cy="268.0" r="2.6" fill="#0f766e" fill-opacity="0.72"/>
<circle cx="194.2" cy="182.8" r="2.6" fill="#0f766e" fill-opacity="0.72"/>
<circle cx="149.7" cy="215.2" r="2.6" fill="#0f766e" fill-opacity="0.72"/>
<circle cx="190.5" cy="237.8" r="2.6" fill="#0f766e" fill-opacity="0.72"/>
<circle cx="591.3" cy="104.7" r="2.6" fill="#0f766e" fill-opacity="0.72"/>
<circle cx="196.5" cy="268.0" r="2.6" fill="#0f766e" fill-opacity="0.72"/>
<circle cx="194.2" cy="182.8" r="2.6" fill="#0f766e" fill-opacity="0.72"/>
<circle cx="149.7" cy="215.2" r="2.6" fill="#0f766e" fill-opacity="0.72"/>
<circle cx="190.5" cy="237.8" r="2.6" fill="#0f766e" fill-opacity="0.72"/>
<circle cx="179.7" cy="207.3" r="2.6" fill="#0f766e" fill-opacity="0.72"/>
<circle cx="196.5" cy="268.0" r="2.6" fill="#0f766e" fill-opacity="0.72"/>
<circle cx="194.2" cy="182.8" r="2.6" fill="#0f766e" fill-opacity="0.72"/>
<circle cx="149.7" cy="215.2" r="2.6" fill="#0f766e" fill-opacity="0.72"/>
<circle cx="190.5" cy="237.8" r="2.6" fill="#0f766e" fill-opacity="0.72"/>
<circle cx="179.7" cy="207.3" r="2.6" fill="#0f766e" fill-opacity="0.72"/>
<circle cx="135.4" cy="264.0" r="2.6" fill="#0f766e" fill-opacity="0.72"/>
<circle cx="194.2" cy="182.8" r="2.6" fill="#0f766e" fill-opacity="0.72"/>
<circle cx="149.7" cy="215.2" r="2.6" fill="#0f766e" fill-opacity="0.72"/>
<circle cx="190.5" cy="237.8" r="2.6" fill="#0f766e" fill-opacity="0.72"/>
<circle cx="179.7" cy="207.3" r="2.6" fill="#0f766e" fill-opacity="0.72"/>
<circle cx="135.4" cy="264.0" r="2.6" fill="#0f766e" fill-opacity="0.72"/>
<circle cx="235.0" cy="198.2" r="2.6" fill="#0f766e" fill-opacity="0.72"/>
<circle cx="149.7" cy="215.2" r="2.6" fill="#0f766e" fill-opacity="0.72"/>
<circle cx="190.5" cy="237.8" r="2.6" fill="#0f766e" fill-opacity="0.72"/>
<circle cx="179.7" cy="207.3" r="2.6" fill="#0f766e" fill-opacity="0.72"/>
<circle cx="135.4" cy="264.0" r="2.6" fill="#0f766e" fill-opacity="0.72"/>
<circle cx="235.0" cy="198.2" r="2.6" fill="#0f766e" fill-opacity="0.72"/>
<circle cx="541.6" cy="129.4" r="2.6" fill="#0f766e" fill-opacity="0.72"/>
<circle cx="190.5" cy="237.8" r="2.6" fill="#0f766e" fill-opacity="0.72"/>
<circle cx="179.7" cy="207.3" r="2.6" fill="#0f766e" fill-opacity="0.72"/>
<circle cx="135.4" cy="264.0" r="2.6" fill="#0f766e" fill-opacity="0.72"/>
<circle cx="235.0" cy="198.2" r="2.6" fill="#0f766e" fill-opacity="0.72"/>
<circle cx="541.6" cy="129.4" r="2.6" fill="#0f766e" fill-opacity="0.72"/>
<circle cx="89.8" cy="145.3" r="2.6" fill="#0f766e" fill-opacity="0.72"/>
<circle cx="179.7" cy="207.3" r="2.6" fill="#0f766e" fill-opacity="0.72"/>
<circle cx="135.4" cy="264.0" r="2.6" fill="#0f766e" fill-opacity="0.72"/>
<circle cx="235.0" cy="198.2" r="2.6" fill="#0f766e" fill-opacity="0.72"/>
<circle cx="541.6" cy="129.4" r="2.6" fill="#0f766e" fill-opacity="0.72"/>
<circle cx="89.8" cy="145.3" r="2.6" fill="#0f766e" fill-opacity="0.72"/>
<circle cx="206.4" cy="231.1" r="2.6" fill="#0f766e" fill-opacity="0.72"/>
<circle cx="135.4" cy="264.0" r="2.6" fill="#0f766e" fill-opacity="0.72"/>
<circle cx="235.0" cy="198.2" r="2.6" fill="#0f766e" fill-opacity="0.72"/>
<circle cx="541.6" cy="129.4" r="2.6" fill="#0f766e" fill-opacity="0.72"/>
<circle cx="89.8" cy="145.3" r="2.6" fill="#0f766e" fill-opacity="0.72"/>
<circle cx="206.4" cy="231.1" r="2.6" fill="#0f766e" fill-opacity="0.72"/>
<circle cx="162.0" cy="165.5" r="2.6" fill="#0f766e" fill-opacity="0.72"/>
<text x="320.0" y="310" font-family="Arial" font-size="12">impulse_n_s</text>
<text x="8" y="38" font-family="Arial" font-size="12">miss_distance_m</text>
</svg>