<svg width="720" height="260" viewBox="0 0 720 260" xmlns="http://www.w3.org/2000/svg">
<rect width="100%" height="100%" fill="white"/>
<text x="40" y="26" font-family="Arial" font-size="18" font-weight="700">Miss Distance Distribution</text>
<rect x="40.0" y="214.6" width="33.6" height="5.4" fill="#2563eb"/>
<rect x="75.6" y="205.1" width="33.6" height="14.9" fill="#2563eb"/>
<rect x="111.1" y="191.6" width="33.6" height="28.4" fill="#2563eb"/>
<rect x="146.7" y="168.6" width="33.6" height="51.4" fill="#2563eb"/>
<rect x="182.2" y="148.3" width="33.6" height="71.7" fill="#2563eb"/>
<rect x="217.8" y="107.7" width="33.6" height="112.3" fill="#2563eb"/>
<rect x="253.3" y="40.0" width="33.6" height="180.0" fill="#2563eb"/>
<rect x="288.9" y="58.9" width="33.6" height="161.1" fill="#2563eb"/>
<rect x="324.4" y="48.1" width="33.6" height="171.9" fill="#2563eb"/>
<rect x="360.0" y="53.5" width="33.6" height="166.5" fill="#2563eb"/>
<rect x="395.6" y="107.7" width="33.6" height="112.3" fill="#2563eb"/>
<rect x="431.1" y="107.7" width="33.6" height="112.3" fill="#2563eb"/>
<rect x="466.7" y="142.9" width="33.6" height="77.1" fill="#2563eb"/>
<rect x="502.2" y="176.7" width="33.6" height="43.3" fill="#2563eb"/>
<rect x="537.8" y="197.0" width="33.6" height="23.0" fill="#2563eb"/>
<rect x="573.3" y="205.1" width="33.6" height="14.9" fill="#2563eb"/>
<rect x="608.9" y="214.6" width="33.6" height="5.4" fill="#2563eb"/>
<rect x="644.4" y="218.6" width="33.6" height="1.4" fill="#2563eb"/>
<line x1="40" y1="220" x2="680" y2="220" stroke="#222"/>
<text x="40" y="250" font-family="Arial" font-size="12">168.7</text>
<text x="610" y="250" font-family="Arial" font-size="12">277.6</text>
</svg>