<svg width="720" height="260" viewBox="0 0 720 260" xmlns="http://www.w3.org/2000/svg">
<rect width="100%" height="100%" fill="white"/>
<text x="40" y="26" font-family="Arial" font-size="18" font-weight="700">Max Dynamic Pressure Distribution</text>
<rect x="40.0" y="214.8" width="33.6" height="5.2" fill="#2563eb"/>
<rect x="75.6" y="209.6" width="33.6" height="10.4" fill="#2563eb"/>
<rect x="111.1" y="187.4" width="33.6" height="32.6" fill="#2563eb"/>
<rect x="146.7" y="161.3" width="33.6" height="58.7" fill="#2563eb"/>
<rect x="182.2" y="152.2" width="33.6" height="67.8" fill="#2563eb"/>
<rect x="217.8" y="102.6" width="33.6" height="117.4" fill="#2563eb"/>
<rect x="253.3" y="68.7" width="33.6" height="151.3" fill="#2563eb"/>
<rect x="288.9" y="97.4" width="33.6" height="122.6" fill="#2563eb"/>
<rect x="324.4" y="75.2" width="33.6" height="144.8" fill="#2563eb"/>
<rect x="360.0" y="40.0" width="33.6" height="180.0" fill="#2563eb"/>
<rect x="395.6" y="87.0" width="33.6" height="133.0" fill="#2563eb"/>
<rect x="431.1" y="111.7" width="33.6" height="108.3" fill="#2563eb"/>
<rect x="466.7" y="160.0" width="33.6" height="60.0" fill="#2563eb"/>
<rect x="502.2" y="161.3" width="33.6" height="58.7" fill="#2563eb"/>
<rect x="537.8" y="195.2" width="33.6" height="24.8" fill="#2563eb"/>
<rect x="573.3" y="205.7" width="33.6" height="14.3" fill="#2563eb"/>
<rect x="608.9" y="210.9" width="33.6" height="9.1" fill="#2563eb"/>
<rect x="644.4" y="214.8" width="33.6" height="5.2" fill="#2563eb"/>
<line x1="40" y1="220" x2="680" y2="220" stroke="#222"/>
<text x="40" y="250" font-family="Arial" font-size="12">65199.4</text>
<text x="610" y="250" font-family="Arial" font-size="12">100685.7</text>
</svg>