<svg width="760" height="320" viewBox="0 0 760 320" xmlns="http://www.w3.org/2000/svg">
<rect width="100%" height="100%" fill="white"/>
<text x="52" y="28" font-family="Arial" font-size="18" font-weight="700">Design Trade: Impulse vs Miss</text>
<line x1="52" y1="268" x2="708" y2="268" stroke="#1f2937"/>
<line x1="52" y1="52" x2="52" y2="268" stroke="#1f2937"/>
<circle cx="246.9" cy="264.5" r="2.6" fill="#0f766e" fill-opacity="0.72"/>
<circle cx="541.1" cy="242.2" r="2.6" fill="#0f766e" fill-opacity="0.72"/>
<circle cx="591.7" cy="247.7" r="2.6" fill="#0f766e" fill-opacity="0.72"/>
<circle cx="205.7" cy="252.6" r="2.6" fill="#0f766e" fill-opacity="0.72"/>
<circle cx="321.0" cy="254.6" r="2.6" fill="#0f766e" fill-opacity="0.72"/>
<circle cx="58.6" cy="52.0" r="2.6" fill="#0f766e" fill-opacity="0.72"/>
<circle cx="708.0" cy="246.3" r="2.6" fill="#0f766e" fill-opacity="0.72"/>
<circle cx="90.6" cy="255.5" r="2.6" fill="#0f766e" fill-opacity="0.72"/>
<circle cx="283.0" cy="250.9" r="2.6" fill="#0f766e" fill-opacity="0.72"/>
<circle cx="52.0" cy="74.6" r="2.6" fill="#0f766e" fill-opacity="0.72"/>
<circle cx="246.9" cy="264.5" r="2.6" fill="#0f766e" fill-opacity="0.72"/>
<circle cx="90.6" cy="255.5" r="2.6" fill="#0f766e" fill-opacity="0.72"/>
<circle cx="82.0" cy="252.2" r="2.6" fill="#0f766e" fill-opacity="0.72"/>
<circle cx="90.6" cy="261.0" r="2.6" fill="#0f766e" fill-opacity="0.72"/>
<circle cx="123.2" cy="259.1" r="2.6" fill="#0f766e" fill-opacity="0.72"/>
<circle cx="130.1" cy="249.7" r="2.6" fill="#0f766e" fill-opacity="0.72"/>
<circle cx="236.6" cy="266.0" r="2.6" fill="#0f766e" fill-opacity="0.72"/>
<circle cx="133.5" cy="257.6" r="2.6" fill="#0f766e" fill-opacity="0.72"/>
<circle cx="272.1" cy="261.2" r="2.6" fill="#0f766e" fill-opacity="0.72"/>
<circle cx="246.9" cy="264.5" r="2.6" fill="#0f766e" fill-opacity="0.72"/>
<circle cx="236.6" cy="266.0" r="2.6" fill="#0f766e" fill-opacity="0.72"/>
<circle cx="90.6" cy="261.0" r="2.6" fill="#0f766e" fill-opacity="0.72"/>
<circle cx="82.0" cy="251.3" r="2.6" fill="#0f766e" fill-opacity="0.72"/>
<circle cx="82.0" cy="250.9" r="2.6" fill="#0f766e" fill-opacity="0.72"/>
<circle cx="72.8" cy="260.3" r="2.6" fill="#0f766e" fill-opacity="0.72"/>
<circle cx="90.6" cy="255.4" r="2.6" fill="#0f766e" fill-opacity="0.72"/>
<circle cx="236.6" cy="266.4" r="2.6" fill="#0f766e" fill-opacity="0.72"/>
<circle cx="63.1" cy="254.9" r="2.6" fill="#0f766e" fill-opacity="0.72"/>
<circle cx="253.3" cy="268.0" r="2.6" fill="#0f766e" fill-opacity="0.72"/>
<circle cx="222.2" cy="267.1" r="2.6" fill="#0f766e" fill-opacity="0.72"/>
<circle cx="253.3" cy="268.0" r="2.6" fill="#0f766e" fill-opacity="0.72"/>
<circle cx="222.2" cy="267.1" r="2.6" fill="#0f766e" fill-opacity="0.72"/>
<circle cx="253.3" cy="265.7" r="2.6" fill="#0f766e" fill-opacity="0.72"/>
<circle cx="240.4" cy="266.3" r="2.6" fill="#0f766e" fill-opacity="0.72"/>
<circle cx="253.3" cy="266.8" r="2.6" fill="#0f766e" fill-opacity="0.72"/>
<circle cx="222.2" cy="264.2" r="2.6" fill="#0f766e" fill-opacity="0.72"/>
<circle cx="243.2" cy="251.8" r="2.6" fill="#0f766e" fill-opacity="0.72"/>
<circle cx="253.3" cy="263.5" r="2.6" fill="#0f766e" fill-opacity="0.72"/>
<circle cx="253.3" cy="265.9" r="2.6" fill="#0f766e" fill-opacity="0.72"/>
<circle cx="209.1" cy="259.5" r="2.6" fill="#0f766e" fill-opacity="0.72"/>
<circle cx="253.3" cy="268.0" r="2.6" fill="#0f766e" fill-opacity="0.72"/>
<circle cx="222.2" cy="267.1" r="2.6" fill="#0f766e" fill-opacity="0.72"/>
<circle cx="220.4" cy="255.8" r="2.6" fill="#0f766e" fill-opacity="0.72"/>
<circle cx="215.3" cy="251.7" r="2.6" fill="#0f766e" fill-opacity="0.72"/>
<circle cx="222.2" cy="261.7" r="2.6" fill="#0f766e" fill-opacity="0.72"/>
<circle cx="222.2" cy="267.2" r="2.6" fill="#0f766e" fill-opacity="0.72"/>
<circle cx="222.2" cy="265.3" r="2.6" fill="#0f766e" fill-opacity="0.72"/>
<circle cx="222.2" cy="266.2" r="2.6" fill="#0f766e" fill-opacity="0.72"/>
<circle cx="221.4" cy="263.9" r="2.6" fill="#0f766e" fill-opacity="0.72"/>
<circle cx="303.9" cy="258.3" r="2.6" fill="#0f766e" fill-opacity="0.72"/>
<circle cx="253.3" cy="268.0" r="2.6" fill="#0f766e" fill-opacity="0.72"/>
<circle cx="222.2" cy="267.2" r="2.6" fill="#0f766e" fill-opacity="0.72"/>
<circle cx="212.4" cy="252.4" r="2.6" fill="#0f766e" fill-opacity="0.72"/>
<circle cx="304.1" cy="263.7" r="2.6" fill="#0f766e" fill-opacity="0.72"/>
<circle cx="327.7" cy="261.3" r="2.6" fill="#0f766e" fill-opacity="0.72"/>
<circle cx="263.6" cy="263.4" r="2.6" fill="#0f766e" fill-opacity="0.72"/>
<circle cx="253.3" cy="264.1" r="2.6" fill="#0f766e" fill-opacity="0.72"/>
<circle cx="253.3" cy="263.1" r="2.6" fill="#0f766e" fill-opacity="0.72"/>
<circle cx="253.3" cy="268.0" r="2.6" fill="#0f766e" fill-opacity="0.72"/>
<circle cx="235.7" cy="267.1" r="2.6" fill="#0f766e" fill-opacity="0.72"/>
<circle cx="253.3" cy="268.0" r="2.6" fill="#0f766e" fill-opacity="0.72"/>
<circle cx="253.3" cy="268.0" r="2.6" fill="#0f766e" fill-opacity="0.72"/>
<circle cx="205.7" cy="254.9" r="2.6" fill="#0f766e" fill-opacity="0.72"/>
<circle cx="253.3" cy="268.0" r="2.6" fill="#0f766e" fill-opacity="0.72"/>
<circle cx="254.1" cy="255.4" r="2.6" fill="#0f766e" fill-opacity="0.72"/>
<circle cx="217.5" cy="261.8" r="2.6" fill="#0f766e" fill-opacity="0.72"/>
<circle cx="276.7" cy="261.3" r="2.6" fill="#0f766e" fill-opacity="0.72"/>
<circle cx="307.6" cy="258.4" r="2.6" fill="#0f766e" fill-opacity="0.72"/>
<circle cx="202.9" cy="264.8" r="2.6" fill="#0f766e" fill-opacity="0.72"/>
<circle cx="254.3" cy="256.4" r="2.6" fill="#0f766e" fill-opacity="0.72"/>
<circle cx="253.3" cy="268.0" r="2.6" fill="#0f766e" fill-opacity="0.72"/>
<circle cx="253.3" cy="268.0" r="2.6" fill="#0f766e" fill-opacity="0.72"/>
<circle cx="253.3" cy="264.7" r="2.6" fill="#0f766e" fill-opacity="0.72"/>
<circle cx="319.3" cy="253.5" r="2.6" fill="#0f766e" fill-opacity="0.72"/>
<circle cx="285.1" cy="255.2" r="2.6" fill="#0f766e" fill-opacity="0.72"/>
<circle cx="253.3" cy="258.3" r="2.6" fill="#0f766e" fill-opacity="0.72"/>
<circle cx="186.5" cy="258.7" r="2.6" fill="#0f766e" fill-opacity="0.72"/>
<circle cx="253.3" cy="266.9" r="2.6" fill="#0f766e" fill-opacity="0.72"/>
<circle cx="253.3" cy="266.6" r="2.6" fill="#0f766e" fill-opacity="0.72"/>
<circle cx="231.2" cy="250.7" r="2.6" fill="#0f766e" fill-opacity="0.72"/>
<text x="320.0" y="310" font-family="Arial" font-size="12">impulse_n_s</text>
<text x="8" y="38" font-family="Arial" font-size="12">miss_distance_m</text>
</svg>