<svg width="760" height="320" viewBox="0 0 760 320" xmlns="http://www.w3.org/2000/svg">
<rect width="100%" height="100%" fill="white"/>
<text x="52" y="28" font-family="Arial" font-size="18" font-weight="700">Miss Distance vs Impulse</text>
<line x1="52" y1="268" x2="708" y2="268" stroke="#1f2937"/>
<line x1="52" y1="52" x2="52" y2="268" stroke="#1f2937"/>
<circle cx="554.8" cy="251.6" r="2.6" fill="#0f766e" fill-opacity="0.72"/>
<circle cx="708.0" cy="241.3" r="2.6" fill="#0f766e" fill-opacity="0.72"/>
<circle cx="236.1" cy="251.9" r="2.6" fill="#0f766e" fill-opacity="0.72"/>
<circle cx="597.2" cy="249.4" r="2.6" fill="#0f766e" fill-opacity="0.72"/>
<circle cx="105.0" cy="254.3" r="2.6" fill="#0f766e" fill-opacity="0.72"/>
<circle cx="498.5" cy="250.2" r="2.6" fill="#0f766e" fill-opacity="0.72"/>
<circle cx="518.4" cy="248.6" r="2.6" fill="#0f766e" fill-opacity="0.72"/>
<circle cx="556.4" cy="251.5" r="2.6" fill="#0f766e" fill-opacity="0.72"/>
<circle cx="612.2" cy="248.0" r="2.6" fill="#0f766e" fill-opacity="0.72"/>
<circle cx="671.6" cy="245.7" r="2.6" fill="#0f766e" fill-opacity="0.72"/>
<circle cx="166.0" cy="255.0" r="2.6" fill="#0f766e" fill-opacity="0.72"/>
<circle cx="196.4" cy="71.7" r="2.6" fill="#0f766e" fill-opacity="0.72"/>
<circle cx="177.7" cy="74.1" r="2.6" fill="#0f766e" fill-opacity="0.72"/>
<circle cx="149.3" cy="257.3" r="2.6" fill="#0f766e" fill-opacity="0.72"/>
<circle cx="559.1" cy="244.0" r="2.6" fill="#0f766e" fill-opacity="0.72"/>
<circle cx="151.0" cy="254.0" r="2.6" fill="#0f766e" fill-opacity="0.72"/>
<circle cx="109.9" cy="262.3" r="2.6" fill="#0f766e" fill-opacity="0.72"/>
<circle cx="142.7" cy="94.6" r="2.6" fill="#0f766e" fill-opacity="0.72"/>
<circle cx="177.8" cy="261.0" r="2.6" fill="#0f766e" fill-opacity="0.72"/>
<circle cx="585.9" cy="248.1" r="2.6" fill="#0f766e" fill-opacity="0.72"/>
<circle cx="99.8" cy="253.5" r="2.6" fill="#0f766e" fill-opacity="0.72"/>
<circle cx="500.6" cy="248.9" r="2.6" fill="#0f766e" fill-opacity="0.72"/>
<circle cx="542.3" cy="250.6" r="2.6" fill="#0f766e" fill-opacity="0.72"/>
<circle cx="97.7" cy="254.1" r="2.6" fill="#0f766e" fill-opacity="0.72"/>
<circle cx="87.7" cy="268.0" r="2.6" fill="#0f766e" fill-opacity="0.72"/>
<circle cx="93.7" cy="253.1" r="2.6" fill="#0f766e" fill-opacity="0.72"/>
<circle cx="135.2" cy="82.3" r="2.6" fill="#0f766e" fill-opacity="0.72"/>
<circle cx="167.9" cy="52.0" r="2.6" fill="#0f766e" fill-opacity="0.72"/>
<circle cx="548.0" cy="247.4" r="2.6" fill="#0f766e" fill-opacity="0.72"/>
<circle cx="140.6" cy="252.4" r="2.6" fill="#0f766e" fill-opacity="0.72"/>
<circle cx="245.2" cy="256.3" r="2.6" fill="#0f766e" fill-opacity="0.72"/>
<circle cx="52.0" cy="254.6" r="2.6" fill="#0f766e" fill-opacity="0.72"/>
<text x="320.0" y="310" font-family="Arial" font-size="12">impulse_n_s</text>
<text x="8" y="38" font-family="Arial" font-size="12">miss_distance_m</text>
</svg>