<svg width="760" height="320" viewBox="0 0 760 320" xmlns="http://www.w3.org/2000/svg">
<rect width="100%" height="100%" fill="white"/>
<text x="52" y="28" font-family="Arial" font-size="18" font-weight="700">Optimization Trade</text>
<line x1="52" y1="268" x2="708" y2="268" stroke="#1f2937"/>
<line x1="52" y1="52" x2="52" y2="268" stroke="#1f2937"/>
<circle cx="286.1" cy="267.3" r="2.6" fill="#0f766e" fill-opacity="0.72"/>
<circle cx="570.3" cy="245.1" r="2.6" fill="#0f766e" fill-opacity="0.72"/>
<circle cx="599.2" cy="247.8" r="2.6" fill="#0f766e" fill-opacity="0.72"/>
<circle cx="220.9" cy="254.0" r="2.6" fill="#0f766e" fill-opacity="0.72"/>
<circle cx="331.7" cy="255.9" r="2.6" fill="#0f766e" fill-opacity="0.72"/>
<circle cx="110.7" cy="59.8" r="2.6" fill="#0f766e" fill-opacity="0.72"/>
<circle cx="707.9" cy="247.0" r="2.6" fill="#0f766e" fill-opacity="0.72"/>
<circle cx="104.8" cy="254.2" r="2.6" fill="#0f766e" fill-opacity="0.72"/>
<circle cx="708.0" cy="250.2" r="2.6" fill="#0f766e" fill-opacity="0.72"/>
<circle cx="643.0" cy="247.9" r="2.6" fill="#0f766e" fill-opacity="0.72"/>
<circle cx="153.7" cy="52.0" r="2.6" fill="#0f766e" fill-opacity="0.72"/>
<circle cx="308.8" cy="264.8" r="2.6" fill="#0f766e" fill-opacity="0.72"/>
<circle cx="378.1" cy="250.0" r="2.6" fill="#0f766e" fill-opacity="0.72"/>
<circle cx="52.0" cy="68.7" r="2.6" fill="#0f766e" fill-opacity="0.72"/>
<circle cx="263.4" cy="254.4" r="2.6" fill="#0f766e" fill-opacity="0.72"/>
<circle cx="360.2" cy="248.6" r="2.6" fill="#0f766e" fill-opacity="0.72"/>
<circle cx="235.7" cy="256.5" r="2.6" fill="#0f766e" fill-opacity="0.72"/>
<circle cx="702.1" cy="251.4" r="2.6" fill="#0f766e" fill-opacity="0.72"/>
<circle cx="306.2" cy="256.3" r="2.6" fill="#0f766e" fill-opacity="0.72"/>
<circle cx="632.9" cy="243.1" r="2.6" fill="#0f766e" fill-opacity="0.72"/>
<circle cx="479.6" cy="248.0" r="2.6" fill="#0f766e" fill-opacity="0.72"/>
<circle cx="485.0" cy="244.3" r="2.6" fill="#0f766e" fill-opacity="0.72"/>
<circle cx="106.1" cy="260.8" r="2.6" fill="#0f766e" fill-opacity="0.72"/>
<circle cx="470.9" cy="244.7" r="2.6" fill="#0f766e" fill-opacity="0.72"/>
<circle cx="306.6" cy="254.9" r="2.6" fill="#0f766e" fill-opacity="0.72"/>
<circle cx="107.7" cy="68.4" r="2.6" fill="#0f766e" fill-opacity="0.72"/>
<circle cx="125.1" cy="258.6" r="2.6" fill="#0f766e" fill-opacity="0.72"/>
<circle cx="261.5" cy="259.3" r="2.6" fill="#0f766e" fill-opacity="0.72"/>
<circle cx="360.2" cy="261.1" r="2.6" fill="#0f766e" fill-opacity="0.72"/>
<circle cx="201.3" cy="255.5" r="2.6" fill="#0f766e" fill-opacity="0.72"/>
<circle cx="275.2" cy="268.0" r="2.6" fill="#0f766e" fill-opacity="0.72"/>
<circle cx="336.6" cy="257.9" r="2.6" fill="#0f766e" fill-opacity="0.72"/>
<text x="320.0" y="310" font-family="Arial" font-size="12">impulse_n_s</text>
<text x="8" y="38" font-family="Arial" font-size="12">miss_distance_m</text>
</svg>